<svg width="24" height="24" viewBox="0 0 24 24" fill="none" xmlns="http://www.w3.org/2000/svg">
    <path d="M6.34279 4.93808C6.43576 5.03095 6.50952 5.14124 6.55984 5.26264C6.61017 5.38403 6.63607 5.51416 6.63607 5.64558C6.63607 5.77699 6.61017 5.90712 6.55984 6.02852C6.50952 6.14991 6.43576 6.2602 6.34279 6.35308C4.84222 7.85389 3.99924 9.88928 3.99924 12.0116C3.99924 14.1339 4.84222 16.1693 6.34279 17.6701C6.4383 17.7623 6.51448 17.8727 6.56689 17.9947C6.6193 18.1167 6.64688 18.2479 6.64804 18.3807C6.64919 18.5135 6.62389 18.6451 6.57361 18.768C6.52333 18.8909 6.44907 19.0026 6.35518 19.0965C6.26129 19.1904 6.14964 19.2646 6.02674 19.3149C5.90384 19.3652 5.77216 19.3905 5.63938 19.3893C5.5066 19.3882 5.37538 19.3606 5.25338 19.3082C5.13138 19.2558 5.02103 19.1796 4.92879 19.0841C1.02179 15.1781 1.02179 8.84408 4.92879 4.93808C5.11631 4.7506 5.37062 4.64529 5.63579 4.64529C5.90095 4.64529 6.15526 4.7506 6.34279 4.93808ZM19.0748 4.93808C22.9808 8.84508 22.9808 15.1781 19.0748 19.0841C18.8873 19.2717 18.6329 19.3772 18.3676 19.3773C18.1024 19.3774 17.8479 19.2721 17.6603 19.0846C17.4726 18.8971 17.3672 18.6427 17.3671 18.3774C17.367 18.1122 17.4723 17.8577 17.6598 17.6701C19.1603 16.1693 20.0033 14.1339 20.0033 12.0116C20.0033 9.88928 19.1603 7.85389 17.6598 6.35308C17.4721 6.16544 17.3667 5.91094 17.3667 5.64558C17.3667 5.38021 17.4721 5.12572 17.6598 4.93808C17.8474 4.75044 18.1019 4.64502 18.3673 4.64502C18.6326 4.64502 18.8871 4.75044 19.0748 4.93808ZM9.30979 7.81208C9.49726 7.9996 9.60257 8.25391 9.60257 8.51908C9.60257 8.78424 9.49726 9.03855 9.30979 9.22608C8.94574 9.59009 8.65696 10.0222 8.45993 10.4979C8.26291 10.9735 8.1615 11.4833 8.1615 11.9981C8.1615 12.5129 8.26291 13.0227 8.45993 13.4983C8.65696 13.9739 8.94574 14.4061 9.30979 14.7701C9.40263 14.863 9.47627 14.9733 9.52649 15.0946C9.57671 15.216 9.60253 15.3461 9.60249 15.4774C9.60244 15.6088 9.57652 15.7388 9.52622 15.8602C9.47591 15.9815 9.4022 16.0917 9.30929 16.1846C9.21637 16.2774 9.10609 16.3511 8.98472 16.4013C8.86335 16.4515 8.73328 16.4773 8.60193 16.4773C8.47058 16.4772 8.34053 16.4513 8.2192 16.401C8.09787 16.3507 7.98763 16.277 7.89479 16.1841C6.78461 15.0739 6.16093 13.5681 6.16093 11.9981C6.16093 10.428 6.78461 8.92229 7.89479 7.81208C7.98766 7.7191 8.09795 7.64534 8.21935 7.59502C8.34074 7.54469 8.47087 7.51879 8.60229 7.51879C8.7337 7.51879 8.86383 7.54469 8.98523 7.59502C9.10662 7.64534 9.21691 7.7191 9.30979 7.81208ZM16.2678 7.81208C17.378 8.92229 18.0016 10.428 18.0016 11.9981C18.0016 13.5681 17.378 15.0739 16.2678 16.1841C16.0792 16.3662 15.8266 16.467 15.5644 16.4648C15.3022 16.4625 15.0514 16.3573 14.866 16.1719C14.6806 15.9865 14.5754 15.7357 14.5731 15.4735C14.5708 15.2113 14.6716 14.9587 14.8538 14.7701C15.2178 14.4061 15.5066 13.9739 15.7036 13.4983C15.9007 13.0227 16.0021 12.5129 16.0021 11.9981C16.0021 11.4833 15.9007 10.9735 15.7036 10.4979C15.5066 10.0222 15.2178 9.59009 14.8538 9.22608C14.6716 9.03747 14.5708 8.78487 14.5731 8.52268C14.5754 8.26048 14.6806 8.00967 14.866 7.82426C15.0514 7.63885 15.3022 7.53368 15.5644 7.5314C15.8266 7.52912 16.0792 7.62992 16.2678 7.81208ZM12.0818 10.5821C12.2788 10.5821 12.4738 10.6209 12.6558 10.6963C12.8378 10.7716 13.0032 10.8821 13.1424 11.0214C13.2817 11.1607 13.3922 11.3261 13.4676 11.5081C13.543 11.69 13.5818 11.8851 13.5818 12.0821C13.5818 12.2791 13.543 12.4741 13.4676 12.6561C13.3922 12.8381 13.2817 13.0034 13.1424 13.1427C13.0032 13.282 12.8378 13.3925 12.6558 13.4679C12.4738 13.5433 12.2788 13.5821 12.0818 13.5821C11.684 13.5821 11.3024 13.424 11.0211 13.1427C10.7398 12.8614 10.5818 12.4799 10.5818 12.0821C10.5818 11.6843 10.7398 11.3027 11.0211 11.0214C11.3024 10.7401 11.684 10.5821 12.0818 10.5821Z" fill="#4CAF50"/>
</svg>
