<svg width="24" height="24" viewBox="0 0 24 24" fill="none" xmlns="http://www.w3.org/2000/svg">
<g opacity="0.81">
<path d="M18.75 12C18.75 15.7279 15.7279 18.75 12 18.75M18.75 12C18.75 8.27208 15.7279 5.25 12 5.25M18.75 12H21M12 18.75C8.27208 18.75 5.25 15.7279 5.25 12M12 18.75V21M5.25 12C5.25 8.27208 8.27208 5.25 12 5.25M5.25 12H3M12 5.25V3M14.25 12C14.25 13.2426 13.2426 14.25 12 14.25C10.7574 14.25 9.75 13.2426 9.75 12C9.75 10.7574 10.7574 9.75 12 9.75C13.2426 9.75 14.25 10.7574 14.25 12Z" stroke="#F7691F" stroke-width="2" stroke-linecap="round" stroke-linejoin="round"/>
</g>
</svg>
