<svg width="48" height="48" viewBox="0 0 48 48" fill="none" xmlns="http://www.w3.org/2000/svg">
<g clip-path="url(#clip0_26_4123)">
<path fill-rule="evenodd" clip-rule="evenodd" d="M20 32C20.5304 32 21.0391 32.2107 21.4142 32.5858C21.7893 32.9609 22 33.4696 22 34V36.344C21.9991 37.9345 21.3668 39.4595 20.242 40.584L19.414 41.414C19.0368 41.7783 18.5316 41.9799 18.0072 41.9753C17.4828 41.9708 16.9812 41.7605 16.6104 41.3896C16.2395 41.0188 16.0292 40.5172 16.0247 39.9928C16.0201 39.4684 16.2217 38.9632 16.586 38.586L17.414 37.758C17.7891 37.383 17.9999 36.8744 18 36.344V34C18 33.4696 18.2107 32.9609 18.5858 32.5858C18.9609 32.2107 19.4696 32 20 32ZM28 32C28.4899 32.0001 28.9627 32.1799 29.3287 32.5054C29.6948 32.8309 29.9287 33.2795 29.986 33.766L30 34V36.344C30 36.7836 30.1448 37.211 30.412 37.56L30.586 37.758L31.414 38.586C31.7727 38.9459 31.9809 39.4289 31.9965 39.9368C32.012 40.4447 31.8336 40.9394 31.4975 41.3206C31.1614 41.7017 30.6929 41.9406 30.1871 41.9888C29.6812 42.037 29.176 41.8908 28.774 41.58L28.586 41.414L27.758 40.586C26.7298 39.5577 26.1101 38.191 26.014 36.74L26 36.344V34C26 33.4696 26.2107 32.9609 26.5858 32.5858C26.9609 32.2107 27.4696 32 28 32ZM12 32C12.4899 32.0001 12.9627 32.1799 13.3287 32.5054C13.6948 32.8309 13.9287 33.2795 13.986 33.766L14 34V35.226C13.9997 36.0107 13.7686 36.778 13.3354 37.4324C12.9023 38.0867 12.2862 38.5992 11.564 38.906L11.264 39.02L8.632 39.898C8.14841 40.0574 7.62224 40.0263 7.16078 39.8111C6.69932 39.5959 6.33731 39.2128 6.14856 38.7399C5.95981 38.267 5.95853 37.7399 6.14499 37.2661C6.33144 36.7923 6.69159 36.4074 7.152 36.19L7.368 36.102L10 35.226V34C10 33.4696 10.2107 32.9609 10.5858 32.5858C10.9609 32.2107 11.4696 32 12 32ZM36 32C36.4899 32.0001 36.9627 32.1799 37.3287 32.5054C37.6948 32.8309 37.9287 33.2795 37.986 33.766L38 34V35.226L40.632 36.102C41.1173 36.2624 41.5228 36.6025 41.7652 37.0525C42.0076 37.5025 42.0685 38.0283 41.9354 38.5218C41.8023 39.0153 41.4853 39.4391 41.0495 39.7062C40.6137 39.9733 40.0922 40.0634 39.592 39.958L39.368 39.898L36.736 39.018C35.9915 38.7703 35.3362 38.309 34.8519 37.6916C34.3675 37.0743 34.0754 36.3281 34.012 35.546L34 35.226V34C34 33.4696 34.2107 32.9609 34.5858 32.5858C34.9609 32.2107 35.4696 32 36 32ZM36 6C37.5304 5.99991 39.003 6.58465 40.1165 7.63457C41.23 8.68448 41.9002 10.1202 41.99 11.648L42 12V24C42.0001 25.5304 41.4153 27.003 40.3654 28.1165C39.3155 29.23 37.8798 29.9002 36.352 29.99L36 30H12C10.4696 30.0001 8.99697 29.4153 7.88348 28.3654C6.76999 27.3155 6.09978 25.8798 6.01 24.352L6 24V12C5.99991 10.4696 6.58465 8.99697 7.63457 7.88348C8.68448 6.76999 10.1202 6.09978 11.648 6.01L12 6H36ZM36 22H12C11.4696 22 10.9609 22.2107 10.5858 22.5858C10.2107 22.9609 10 23.4696 10 24V26H38V24C38 23.4696 37.7893 22.9609 37.4142 22.5858C37.0391 22.2107 36.5304 22 36 22ZM34 12C33.4696 12 32.9609 12.2107 32.5858 12.5858C32.2107 12.9609 32 13.4696 32 14C32 14.5304 32.2107 15.0391 32.5858 15.4142C32.9609 15.7893 33.4696 16 34 16C34.5304 16 35.0391 15.7893 35.4142 15.4142C35.7893 15.0391 36 14.5304 36 14C36 13.4696 35.7893 12.9609 35.4142 12.5858C35.0391 12.2107 34.5304 12 34 12Z" fill="#ADDF48"/>
</g>
<defs>
<clipPath id="clip0_26_4123">
<rect width="48" height="48" fill="white"/>
</clipPath>
</defs>
</svg>
