<svg width="16" height="16" viewBox="0 0 16 16" fill="none" xmlns="http://www.w3.org/2000/svg">
<g id="appliances" clip-path="url(#clip0_1153_5916)">
<g id="Group">
<path id="Vector" d="M8.68145 5.95616C8.68145 8.12969 6.92998 9.88693 4.77529 9.88693C2.62061 9.88693 0.869141 8.12969 0.869141 5.95616C0.869141 3.78263 2.62061 2.02539 4.77529 2.02539C6.92998 2.02539 8.68145 3.78263 8.68145 5.95616Z" stroke="#222222" stroke-miterlimit="10"/>
<path id="Vector_2" d="M4.77548 8.65586C3.30644 8.65586 2.1001 7.45454 2.1001 5.95586C2.1001 4.45718 3.30644 3.25586 4.77548 3.25586C6.24452 3.25586 7.45087 4.45718 7.45087 5.95586C7.45087 7.45708 6.26662 8.65586 4.77548 8.65586Z" stroke="#222222" stroke-miterlimit="10"/>
<path id="Vector_3" d="M4 4.5C5 4.5 6 5 5.99385 6.54308M8.00001 2.97837V1.13222C8.00001 0.713756 7.6554 0.369141 7.26155 0.369141H2.28924C1.87078 0.369141 1.55078 0.713756 1.55078 1.13222V2.97837M1.55078 8.93529V14.8676C1.55078 15.2861 1.8954 15.6307 2.28924 15.6307H7.26155C7.68001 15.6307 8.00001 15.2861 8.00001 14.8676V8.93529M3.64309 14.523H4.11078M4.55386 14.523H5.02155M5.44001 14.523H5.93232M10.7944 12.1845H11.4308H13.2068M14.04 9.25529H9.84617C9.52617 9.25529 9.2554 9.52606 9.2554 9.87068V14.4984C9.2554 14.843 9.52617 15.1138 9.84617 15.1138H14.04C14.36 15.1138 14.6308 14.843 14.6308 14.4984V9.87068C14.6308 9.52606 14.36 9.25529 14.04 9.25529ZM8.00001 11.0522H9.23078V13.3414H8.00001V11.0522Z" stroke="#222222" stroke-miterlimit="10"/>
</g>
</g>
<defs>
<clipPath id="clip0_1153_5916">
<rect width="16" height="16" fill="white"/>
</clipPath>
</defs>
</svg>
