<svg width="24" height="24" viewBox="0 0 24 24" fill="none" xmlns="http://www.w3.org/2000/svg">
    <path d="M11.25 16.95V13.8L9.025 16.025C9.35834 16.2583 9.71267 16.45 10.088 16.6C10.4633 16.75 10.8507 16.8667 11.25 16.95ZM12.75 16.925C13.15 16.8583 13.5377 16.75 13.913 16.6C14.2883 16.45 14.6423 16.2583 14.975 16.025L12.75 13.8V16.925ZM16.025 14.975C16.2583 14.6417 16.446 14.2877 16.588 13.913C16.73 13.5383 16.8423 13.1507 16.925 12.75H13.8L16.025 14.975ZM13.8 11.25H16.925C16.8417 10.8667 16.729 10.4877 16.587 10.113C16.445 9.73834 16.2577 9.384 16.025 9.05L13.8 11.25ZM12.75 10.2L14.975 7.975C14.6417 7.74167 14.2873 7.55 13.912 7.4C13.5367 7.25 13.1493 7.13334 12.75 7.05V10.2ZM12 13C12.2833 13 12.5207 12.9043 12.712 12.713C12.9033 12.5217 12.9993 12.284 13 12C13 11.7167 12.904 11.479 12.712 11.287C12.52 11.095 12.2827 10.9993 12 11C11.7167 11 11.479 11.096 11.287 11.288C11.095 11.48 10.9993 11.7173 11 12C11 12.2833 11.096 12.521 11.288 12.713C11.48 12.905 11.7173 13.0007 12 13ZM11.25 10.2V7.075C10.85 7.14167 10.4623 7.25 10.087 7.4C9.71167 7.55 9.35767 7.74167 9.025 7.975L11.25 10.2ZM7.075 11.25H10.2L7.975 9.05C7.74167 9.38334 7.55 9.73334 7.4 10.1C7.25 10.4667 7.14167 10.85 7.075 11.25ZM7.975 14.975L10.2 12.75H7.05C7.13334 13.15 7.25 13.5377 7.4 13.913C7.55 14.2883 7.74167 14.6423 7.975 14.975ZM5 21C4.45 21 3.979 20.804 3.587 20.412C3.195 20.02 2.99934 19.5493 3 19V5C3 4.45 3.196 3.979 3.588 3.587C3.98 3.195 4.45067 2.99934 5 3H19C19.55 3 20.021 3.196 20.413 3.588C20.805 3.98 21.0007 4.45067 21 5V19C21 19.55 20.804 20.021 20.412 20.413C20.02 20.805 19.5493 21.0007 19 21H5Z" fill="#F7691F"/>
</svg>
