<svg width="18" height="18" viewBox="0 0 18 18" fill="none" xmlns="http://www.w3.org/2000/svg">
<g id="iconamoon:mode-dark-light">
<path id="Vector" d="M9.00001 15.7494C9.90237 15.7494 10.7956 15.5686 11.6268 15.2174C12.4581 14.8663 13.2105 14.3521 13.8396 13.7052C14.4687 13.0583 14.9617 12.2918 15.2894 11.451C15.6172 10.6103 15.773 9.71238 15.7478 8.81037C14.8038 9.46743 13.6701 9.7963 12.521 9.74645C11.372 9.69661 10.271 9.27079 9.38748 8.53445C8.50393 7.79812 7.88663 6.792 7.63045 5.67074C7.37427 4.54948 7.49339 3.37511 7.96951 2.32812C6.28817 2.58722 4.76668 3.47162 3.70943 4.80438C2.65217 6.13713 2.13714 7.81994 2.26738 9.51613C2.39762 11.2123 3.16351 12.7968 4.41183 13.9525C5.66015 15.1082 7.29883 15.75 9.00001 15.7494Z" stroke="#222222" stroke-width="1.5" stroke-linecap="round" stroke-linejoin="round"/>
</g>
</svg>
