<svg width="17" height="15" viewBox="0 0 17 15" fill="none" xmlns="http://www.w3.org/2000/svg">
<path d="M13.347 0.178055H4.01363C3.1299 0.179113 2.28267 0.530643 1.65778 1.15553C1.03289 1.78043 0.681356 2.62766 0.680298 3.51139L0.680298 11.5114C0.681356 12.3951 1.03289 13.2424 1.65778 13.8672C2.28267 14.4921 3.1299 14.8437 4.01363 14.8447H13.347C14.2307 14.8437 15.0779 14.4921 15.7028 13.8672C16.3277 13.2424 16.6792 12.3951 16.6803 11.5114V3.51139C16.6792 2.62766 16.3277 1.78043 15.7028 1.15553C15.0779 0.530643 14.2307 0.179113 13.347 0.178055ZM4.01363 1.51139H13.347C13.7462 1.51217 14.136 1.6324 14.4663 1.85659C14.7966 2.08078 15.0522 2.39869 15.2003 2.76939L10.095 7.87539C9.71925 8.2496 9.21058 8.4597 8.6803 8.4597C8.15002 8.4597 7.64135 8.2496 7.26563 7.87539L2.1603 2.76939C2.3084 2.39869 2.56404 2.08078 2.89433 1.85659C3.22462 1.6324 3.61444 1.51217 4.01363 1.51139ZM13.347 13.5114H4.01363C3.4832 13.5114 2.97449 13.3007 2.59942 12.9256C2.22434 12.5505 2.01363 12.0418 2.01363 11.5114V4.51139L6.32296 8.81806C6.94872 9.44223 7.79647 9.79275 8.6803 9.79275C9.56413 9.79275 10.4119 9.44223 11.0376 8.81806L15.347 4.51139V11.5114C15.347 12.0418 15.1363 12.5505 14.7612 12.9256C14.3861 13.3007 13.8774 13.5114 13.347 13.5114Z" fill="#040415" fill-opacity="0.4"/>
</svg>
