<svg width="48" height="48" viewBox="0 0 48 48" fill="none" xmlns="http://www.w3.org/2000/svg">
<path d="M39.54 14.46L39.56 14.44L32.12 7L30 9.12L34.22 13.34C32.34 14.06 31 15.86 31 18C31 18.6566 31.1293 19.3068 31.3806 19.9134C31.6319 20.52 32.0002 21.0712 32.4645 21.5355C33.4021 22.4732 34.6739 23 36 23C36.72 23 37.38 22.84 38 22.58V37C38 37.5304 37.7893 38.0391 37.4142 38.4142C37.0391 38.7893 36.5304 39 36 39C35.4696 39 34.9609 38.7893 34.5858 38.4142C34.2107 38.0391 34 37.5304 34 37V28C34 26.9391 33.5786 25.9217 32.8284 25.1716C32.0783 24.4214 31.0609 24 30 24H28V10C28 8.93913 27.5786 7.92172 26.8284 7.17157C26.0783 6.42143 25.0609 6 24 6H12C10.9391 6 9.92172 6.42143 9.17157 7.17157C8.42143 7.92172 8 8.93913 8 10V42H28V27H31V37C31 38.3261 31.5268 39.5979 32.4645 40.5355C33.4021 41.4732 34.6739 42 36 42C36.6566 42 37.3068 41.8707 37.9134 41.6194C38.52 41.3681 39.0712 40.9998 39.5355 40.5355C39.9998 40.0712 40.3681 39.52 40.6194 38.9134C40.8707 38.3068 41 37.6566 41 37V18C41 16.62 40.44 15.36 39.54 14.46ZM36 20C35.4696 20 34.9609 19.7893 34.5858 19.4142C34.2107 19.0391 34 18.5304 34 18C34 17.4696 34.2107 16.9609 34.5858 16.5858C34.9609 16.2107 35.4696 16 36 16C36.5304 16 37.0391 16.2107 37.4142 16.5858C37.7893 16.9609 38 17.4696 38 18C38 18.5304 37.7893 19.0391 37.4142 19.4142C37.0391 19.7893 36.5304 20 36 20ZM16 36V27H12L20 12V22H24L16 36Z" fill="#FFBA5B"/>
</svg>
