<svg width="24" height="24" viewBox="0 0 24 24" fill="none" xmlns="http://www.w3.org/2000/svg">
    <path d="M4 4L20 20M12 9C13.6569 9 15 10.3431 15 12M9.71782 5.26159C10.4508 5.09048 11.2148 5 12 5C16.2563 5 19.8916 7.6592 21.335 11.4069C21.482 11.7885 21.482 12.2116 21.335 12.5932C20.9564 13.5763 20.4269 14.4845 19.7749 15.2895M9.85721 9.90036C9.32695 10.4415 9 11.1825 9 12C9 13.6569 10.3431 15 12 15C12.8066 15 13.5389 14.6817 14.078 14.1638M17.4078 17.4131C15.8486 18.4173 13.9924 19 12 19C7.74362 19 4.10837 16.3408 2.66492 12.5932C2.51794 12.2115 2.51794 11.7885 2.66492 11.4069C3.43203 9.41519 4.81817 7.73094 6.58759 6.58987" stroke="#8E8E8E" stroke-width="1.5" stroke-linecap="round" stroke-linejoin="round"/>
</svg>
