<svg width="48" height="48" viewBox="0 0 48 48" fill="none" xmlns="http://www.w3.org/2000/svg">
<path d="M38 6H10C7.8 6 6 7.8 6 10V38C6 40.2 7.8 42 10 42H38C40.2 42 42 40.2 42 38V10C42 7.8 40.2 6 38 6ZM25.5 14.16C27.14 14.4 28.64 15.04 29.9 15.98L25.5 20.38V14.16ZM22.5 14.16V20.38L18.1 15.98C19.36 15.04 20.86 14.4 22.5 14.16ZM15.98 18.1L20.38 22.5H14.16C14.4 20.86 15.04 19.36 15.98 18.1ZM14.16 25.5H20.38L15.98 29.9C15.04 28.64 14.4 27.14 14.16 25.5ZM22.5 33.84C20.86 33.6 19.36 32.96 18.1 32.02L22.5 27.62V33.84ZM24 26C22.9 26 22 25.1 22 24C22 22.9 22.9 22 24 22C25.1 22 26 22.9 26 24C26 25.1 25.1 26 24 26ZM25.5 33.84V27.62L29.9 32.02C28.64 32.96 27.14 33.6 25.5 33.84ZM32.02 29.9L27.62 25.5H33.84C33.6 27.14 32.96 28.64 32.02 29.9ZM27.62 22.5L32.02 18.1C32.96 19.38 33.6 20.88 33.84 22.5H27.62Z" fill="#F47788"/>
</svg>
