<svg width="24" height="24" viewBox="0 0 24 24" fill="none" xmlns="http://www.w3.org/2000/svg">
<path d="M3.28015 2.22015C3.21149 2.14647 3.12869 2.08736 3.03669 2.04637C2.94469 2.00538 2.84538 1.98334 2.74468 1.98156C2.64397 1.97979 2.54394 1.99831 2.45056 2.03603C2.35717 2.07375 2.27233 2.1299 2.20112 2.20112C2.1299 2.27233 2.07375 2.35717 2.03603 2.45056C1.99831 2.54394 1.97979 2.64397 1.98156 2.74468C1.98334 2.84538 2.00538 2.94469 2.04637 3.03669C2.08736 3.12869 2.14647 3.21149 2.22015 3.28015L4.42315 5.48315C1.03015 9.41315 1.19915 15.3552 4.92915 19.0842C5.11776 19.2663 5.37036 19.3671 5.63255 19.3648C5.89475 19.3625 6.14556 19.2574 6.33097 19.072C6.51638 18.8866 6.62155 18.6358 6.62383 18.3736C6.62611 18.1114 6.52531 17.8588 6.34315 17.6702C4.93349 16.2602 4.10082 14.3748 4.00816 12.3831C3.91549 10.3915 4.5695 8.43695 5.84215 6.90215L7.36215 8.42215C6.49853 9.56232 6.07674 10.9765 6.17472 12.4035C6.27269 13.8304 6.88381 15.1737 7.89515 16.1852C8.08279 16.3728 8.33729 16.4782 8.60265 16.4782C8.86802 16.4782 9.12251 16.3728 9.31015 16.1852C9.49779 15.9975 9.60321 15.743 9.60321 15.4777C9.60321 15.2123 9.49779 14.9578 9.31015 14.7702C8.67434 14.1342 8.2764 13.299 8.18301 12.4046C8.08961 11.5101 8.30644 10.6108 8.79715 9.85715L10.6322 11.6932C10.5731 11.9155 10.5658 12.1484 10.611 12.374C10.6561 12.5996 10.7524 12.8118 10.8925 12.9943C11.0326 13.1768 11.2127 13.3247 11.4189 13.4266C11.6252 13.5286 11.8521 13.5818 12.0822 13.5822C12.2162 13.5822 12.3462 13.5642 12.4702 13.5312L20.7202 21.7812C20.7894 21.8528 20.8722 21.9099 20.9637 21.9491C21.0552 21.9884 21.1536 22.009 21.2532 22.0098C21.3528 22.0107 21.4515 21.9916 21.5437 21.9539C21.6359 21.9161 21.7196 21.8604 21.79 21.7899C21.8603 21.7195 21.916 21.6357 21.9537 21.5435C21.9913 21.4513 22.0103 21.3526 22.0093 21.253C22.0084 21.1534 21.9877 21.055 21.9483 20.9635C21.909 20.872 21.8518 20.7893 21.7802 20.7202L3.28015 2.22015ZM19.0282 15.8462L20.4902 17.3082C22.9042 13.4472 22.4322 8.29615 19.0752 4.93815C18.9822 4.84524 18.8719 4.77154 18.7506 4.72126C18.6292 4.67098 18.4991 4.6451 18.3677 4.6451C18.2363 4.6451 18.1062 4.67098 17.9848 4.72126C17.8634 4.77154 17.7531 4.84524 17.6602 4.93815C17.5672 5.03106 17.4935 5.14136 17.4433 5.26276C17.393 5.38415 17.3671 5.51426 17.3671 5.64565C17.3671 5.77705 17.393 5.90716 17.4433 6.02855C17.4935 6.14994 17.5672 6.26024 17.6602 6.35315C18.8826 7.57565 19.6764 9.161 19.923 10.8721C20.1696 12.5833 19.8557 14.3283 19.0282 15.8462ZM15.9302 12.7482L17.5212 14.3392C17.9892 13.2507 18.12 12.0469 17.8966 10.8833C17.6732 9.71974 17.106 8.64992 16.2682 7.81215C16.1759 7.71664 16.0656 7.64046 15.9436 7.58805C15.8216 7.53564 15.6903 7.50806 15.5576 7.5069C15.4248 7.50575 15.2931 7.53105 15.1702 7.58133C15.0473 7.63161 14.9357 7.70587 14.8418 7.79976C14.7479 7.89365 14.6736 8.0053 14.6233 8.1282C14.5731 8.2511 14.5477 8.38278 14.5489 8.51555C14.5501 8.64833 14.5776 8.77955 14.6301 8.90156C14.6825 9.02356 14.7586 9.13391 14.8542 9.22615C15.3085 9.68003 15.6442 10.2386 15.8319 10.8528C16.0195 11.467 16.0533 12.1179 15.9302 12.7482Z" fill="#FF0000"/>
</svg>
