<svg width="19" height="19" viewBox="0 0 19 19" fill="none" xmlns="http://www.w3.org/2000/svg">
    <defs>
        <clipPath id="clip0_33_4347">
            <rect width="18" height="18" fill="white" transform="translate(0.175781 0.782959)" />
        </clipPath>
    </defs>
    <g clip-path="url(#clip0_33_4347)">
        <path
            d="M14.4258 7.10096V6.03296C14.4258 4.64057 13.8727 3.30521 12.8881 2.32065C11.9035 1.33608 10.5682 0.782959 9.17578 0.782959C7.7834 0.782959 6.44804 1.33608 5.46347 2.32065C4.4789 3.30521 3.92578 4.64057 3.92578 6.03296V7.10096C3.2578 7.39249 2.68925 7.87235 2.28966 8.48187C1.89006 9.09138 1.67674 9.80413 1.67578 10.533V15.033C1.67697 16.0272 2.07244 16.9803 2.77545 17.6833C3.47845 18.3863 4.43159 18.7818 5.42578 18.783H12.9258C13.92 18.7818 14.8731 18.3863 15.5761 17.6833C16.2791 16.9803 16.6746 16.0272 16.6758 15.033V10.533C16.6748 9.80413 16.4615 9.09138 16.0619 8.48187C15.6623 7.87235 15.0938 7.39249 14.4258 7.10096V7.10096ZM5.42578 6.03296C5.42578 5.0384 5.82087 4.08457 6.52413 3.38131C7.22739 2.67805 8.18122 2.28296 9.17578 2.28296C10.1703 2.28296 11.1242 2.67805 11.8274 3.38131C12.5307 4.08457 12.9258 5.0384 12.9258 6.03296V6.78296H5.42578V6.03296ZM15.1758 15.033C15.1758 15.6297 14.9387 16.202 14.5168 16.6239C14.0948 17.0459 13.5225 17.283 12.9258 17.283H5.42578C4.82904 17.283 4.25675 17.0459 3.83479 16.6239C3.41283 16.202 3.17578 15.6297 3.17578 15.033V10.533C3.17578 9.93622 3.41283 9.36393 3.83479 8.94197C4.25675 8.52001 4.82904 8.28296 5.42578 8.28296H12.9258C13.5225 8.28296 14.0948 8.52001 14.5168 8.94197C14.9387 9.36393 15.1758 9.93622 15.1758 10.533V15.033Z"
            fill="#040415" fill-opacity="0.7" />
        <path
            d="M9.17578 11.283C8.97687 11.283 8.7861 11.362 8.64545 11.5026C8.5048 11.6433 8.42578 11.834 8.42578 12.033V13.533C8.42578 13.7319 8.5048 13.9226 8.64545 14.0633C8.7861 14.2039 8.97687 14.283 9.17578 14.283C9.37469 14.283 9.56546 14.2039 9.70611 14.0633C9.84676 13.9226 9.92578 13.7319 9.92578 13.533V12.033C9.92578 11.834 9.84676 11.6433 9.70611 11.5026C9.56546 11.362 9.37469 11.283 9.17578 11.283Z"
            fill="#040415" fill-opacity="0.7" />
    </g>
</svg>