<svg width="18" height="18" viewBox="0 0 18 18" fill="none" xmlns="http://www.w3.org/2000/svg">
<g id="Settings 2">
<g id="Vector">
<path d="M7.50001 3C7.50001 2.58579 7.8358 2.25 8.25001 2.25H9.75001C10.1642 2.25 10.5 2.58579 10.5 3V3.96741C10.8492 4.07132 11.1831 4.21058 11.4976 4.38102L12.182 3.69668C12.4749 3.40379 12.9498 3.40379 13.2426 3.69668L14.3033 4.75734C14.5962 5.05023 14.5962 5.52511 14.3033 5.818L13.619 6.50234C13.7894 6.8169 13.9287 7.15084 14.0326 7.5H15C15.4142 7.5 15.75 7.83579 15.75 8.25V9.75C15.75 10.1642 15.4142 10.5 15 10.5H14.0326C13.9287 10.8492 13.7894 11.1831 13.619 11.4977L14.3033 12.182C14.5962 12.4749 14.5962 12.9498 14.3033 13.2427L13.2426 14.3033C12.9498 14.5962 12.4749 14.5962 12.182 14.3033L11.4976 13.619C11.1831 13.7894 10.8492 13.9287 10.5 14.0326V15C10.5 15.4142 10.1642 15.75 9.75001 15.75H8.25001C7.8358 15.75 7.50001 15.4142 7.50001 15V14.0326C7.15085 13.9287 6.81691 13.7894 6.50235 13.619L5.81802 14.3033C5.52513 14.5962 5.05026 14.5962 4.75736 14.3033L3.6967 13.2426C3.40381 12.9497 3.40381 12.4749 3.6967 12.182L4.38104 11.4976C4.21059 11.1831 4.07133 10.8491 3.96742 10.5H3C2.58579 10.5 2.25 10.1642 2.25 9.75V8.25C2.25 7.83579 2.58579 7.5 3 7.5H3.96742C4.07133 7.15085 4.21059 6.81692 4.38104 6.50237L3.69671 5.81804C3.40381 5.52514 3.40381 5.05027 3.69671 4.75737L4.75737 3.69671C5.05026 3.40382 5.52513 3.40382 5.81803 3.69671L6.50235 4.38104C6.81692 4.21058 7.15085 4.07132 7.50001 3.96741V3Z" stroke="#222222" stroke-width="1.5" stroke-linecap="round" stroke-linejoin="round"/>
<path d="M11.25 9C11.25 10.2426 10.2427 11.25 9.00001 11.25C7.75737 11.25 6.75001 10.2426 6.75001 9C6.75001 7.75736 7.75737 6.75 9.00001 6.75C10.2427 6.75 11.25 7.75736 11.25 9Z" stroke="#222222" stroke-width="1.5" stroke-linecap="round" stroke-linejoin="round"/>
</g>
</g>
</svg>
