<svg width="24" height="24" viewBox="0 0 24 24" fill="none" xmlns="http://www.w3.org/2000/svg">
    <path d="M2.25 12.25C2.25 12.0511 2.32902 11.8603 2.46967 11.7197C2.61032 11.579 2.80109 11.5 3 11.5C5.58586 11.5 8.06581 12.5272 9.89429 14.3557C11.7228 16.1842 12.75 18.6641 12.75 21.25C12.75 21.4489 12.671 21.6397 12.5303 21.7803C12.3897 21.921 12.1989 22 12 22C11.8011 22 11.6103 21.921 11.4697 21.7803C11.329 21.6397 11.25 21.4489 11.25 21.25C11.25 20.1666 11.0366 19.0938 10.622 18.0929C10.2074 17.0919 9.59971 16.1825 8.83363 15.4164C8.06755 14.6503 7.15807 14.0426 6.15714 13.628C5.1562 13.2134 4.08341 13 3 13C2.80109 13 2.61032 12.921 2.46967 12.7803C2.32902 12.6397 2.25 12.4489 2.25 12.25Z" fill="#F7691F"/>
    <path d="M2.25 15.25C2.25 15.0511 2.32902 14.8603 2.46967 14.7197C2.61032 14.579 2.80109 14.5 3 14.5C4.79021 14.5 6.5071 15.2112 7.77297 16.477C9.03884 17.7429 9.75 19.4598 9.75 21.25C9.75 21.4489 9.67098 21.6397 9.53033 21.7803C9.38968 21.921 9.19891 22 9 22C8.80109 22 8.61032 21.921 8.46967 21.7803C8.32902 21.6397 8.25 21.4489 8.25 21.25C8.25 18.35 5.9 16 3 16C2.80109 16 2.61032 15.921 2.46967 15.7803C2.32902 15.6397 2.25 15.4489 2.25 15.25Z" fill="#F7691F"/>
    <path d="M3.00011 17.5C2.8012 17.5 2.61043 17.579 2.46978 17.7197C2.32913 17.8603 2.25011 18.0511 2.25011 18.25C2.25011 18.4489 2.32913 18.6397 2.46978 18.7803C2.61043 18.921 2.8012 19 3.00011 19C3.59685 19 4.16914 19.2371 4.5911 19.659C5.01306 20.081 5.25011 20.6533 5.25011 21.25C5.25011 21.4489 5.32913 21.6397 5.46978 21.7803C5.61043 21.921 5.8012 22 6.00011 22C6.19902 22 6.38979 21.921 6.53044 21.7803C6.67109 21.6397 6.75011 21.4489 6.75011 21.25C6.75011 20.2554 6.35502 19.3016 5.65176 18.5983C4.9485 17.8951 3.99467 17.5 3.00011 17.5ZM2.02411 10.222C2.32011 10.08 2.65011 10 3.00011 10C9.21311 10 14.2501 15.037 14.2501 21.25C14.2501 21.513 14.2051 21.765 14.1221 21.999C16.9041 21.989 18.3981 21.895 19.4511 20.989C20.6261 19.976 20.8701 18.283 21.3571 14.895L21.6361 12.958C22.0161 10.321 22.2061 9.002 21.6651 7.875C21.1251 6.748 19.9741 6.062 17.6731 4.692L16.2881 3.867C14.2001 2.622 13.1541 2 12.0001 2C10.8461 2 9.80111 2.622 7.71211 3.867L6.32711 4.692C4.02711 6.062 2.87611 6.748 2.33511 7.875C2.02511 8.523 1.95511 9.234 2.02511 10.222H2.02411Z" fill="#F7691F"/>
</svg>
