<svg width="48" height="48" viewBox="0 0 48 48" fill="none" xmlns="http://www.w3.org/2000/svg">
<path d="M26 36V40H38V44H26C24.9391 44 23.9217 43.5786 23.1716 42.8284C22.4214 42.0783 22 41.0609 22 40V36H16C13.8783 36 11.8434 35.1571 10.3431 33.6569C8.84285 32.1566 8 30.1217 8 28V20H40V28C40 30.1217 39.1571 32.1566 37.6569 33.6569C36.1566 35.1571 34.1217 36 32 36H26ZM32 12H38C38.5304 12 39.0391 12.2107 39.4142 12.5858C39.7893 12.9609 40 13.4696 40 14V18H8V14C8 13.4696 8.21071 12.9609 8.58579 12.5858C8.96086 12.2107 9.46957 12 10 12H16V4H20V12H28V4H32V12ZM24 29C24.5304 29 25.0391 28.7893 25.4142 28.4142C25.7893 28.0391 26 27.5304 26 27C26 26.4696 25.7893 25.9609 25.4142 25.5858C25.0391 25.2107 24.5304 25 24 25C23.4696 25 22.9609 25.2107 22.5858 25.5858C22.2107 25.9609 22 26.4696 22 27C22 27.5304 22.2107 28.0391 22.5858 28.4142C22.9609 28.7893 23.4696 29 24 29Z" fill="#71C0FF"/>
</svg>
