<svg width="30" height="30" viewBox="0 0 30 30" fill="none" xmlns="http://www.w3.org/2000/svg">
<path d="M8.75 15C8.75 15.6904 8.19036 16.25 7.5 16.25C6.80964 16.25 6.25 15.6904 6.25 15C6.25 14.3096 6.80964 13.75 7.5 13.75C8.19036 13.75 8.75 14.3096 8.75 15Z" fill="#222222"/>
<path d="M16.25 15C16.25 15.6904 15.6904 16.25 15 16.25C14.3096 16.25 13.75 15.6904 13.75 15C13.75 14.3096 14.3096 13.75 15 13.75C15.6904 13.75 16.25 14.3096 16.25 15Z" fill="#222222"/>
<path d="M23.75 15C23.75 15.6904 23.1904 16.25 22.5 16.25C21.8096 16.25 21.25 15.6904 21.25 15C21.25 14.3096 21.8096 13.75 22.5 13.75C23.1904 13.75 23.75 14.3096 23.75 15Z" fill="#222222"/>
<path d="M8.75 15C8.75 15.6904 8.19036 16.25 7.5 16.25C6.80964 16.25 6.25 15.6904 6.25 15C6.25 14.3096 6.80964 13.75 7.5 13.75C8.19036 13.75 8.75 14.3096 8.75 15Z" stroke="#222222" stroke-linecap="round" stroke-linejoin="round"/>
<path d="M16.25 15C16.25 15.6904 15.6904 16.25 15 16.25C14.3096 16.25 13.75 15.6904 13.75 15C13.75 14.3096 14.3096 13.75 15 13.75C15.6904 13.75 16.25 14.3096 16.25 15Z" stroke="#222222" stroke-linecap="round" stroke-linejoin="round"/>
<path d="M23.75 15C23.75 15.6904 23.1904 16.25 22.5 16.25C21.8096 16.25 21.25 15.6904 21.25 15C21.25 14.3096 21.8096 13.75 22.5 13.75C23.1904 13.75 23.75 14.3096 23.75 15Z" stroke="#222222" stroke-linecap="round" stroke-linejoin="round"/>
</svg>
