<svg width="24" height="24" viewBox="0 0 24 24" fill="none" xmlns="http://www.w3.org/2000/svg">
    <path d="M10.0001 3.57812C9.80118 3.57812 9.61041 3.49911 9.46976 3.35845C9.32911 3.2178 9.25009 3.02704 9.25009 2.82812C9.25009 2.62921 9.32911 2.43845 9.46976 2.29779C9.61041 2.15714 9.80118 2.07813 10.0001 2.07812H13.5361C13.735 2.07812 13.9258 2.15714 14.0664 2.29779C14.2071 2.43845 14.2861 2.62921 14.2861 2.82812C14.2861 3.02704 14.2071 3.2178 14.0664 3.35845C13.9258 3.49911 13.735 3.57812 13.5361 3.57812H10.0001ZM6.53009 4.03013C6.67054 4.17075 6.74943 4.36137 6.74943 4.56012C6.74943 4.75888 6.67054 4.9495 6.53009 5.09013L4.03009 7.59013C3.88792 7.72261 3.69987 7.79473 3.50557 7.7913C3.31127 7.78787 3.12588 7.70916 2.98847 7.57175C2.85106 7.43433 2.77234 7.24895 2.76892 7.05465C2.76549 6.86035 2.83761 6.6723 2.97009 6.53013L5.47009 4.03013C5.61072 3.88967 5.80134 3.81078 6.00009 3.81078C6.19884 3.81078 6.38947 3.88967 6.53009 4.03013Z" fill="#545454"/>
    <path fill-rule="evenodd" clip-rule="evenodd" d="M12 5.05957C9.74566 5.05957 7.58365 5.9551 5.98959 7.54916C4.39553 9.14322 3.5 11.3052 3.5 13.5596C3.5 15.8139 4.39553 17.9759 5.98959 19.57C7.58365 21.164 9.74566 22.0596 12 22.0596C14.2543 22.0596 16.4163 21.164 18.0104 19.57C19.6045 17.9759 20.5 15.8139 20.5 13.5596C20.5 11.3052 19.6045 9.14322 18.0104 7.54916C16.4163 5.9551 14.2543 5.05957 12 5.05957ZM16.99 8.77057C17.063 8.67436 17.0988 8.55495 17.0906 8.43443C17.0824 8.31392 17.0309 8.20043 16.9456 8.11495C16.8602 8.02948 16.7468 7.97779 16.6263 7.96945C16.5058 7.9611 16.3863 7.99667 16.29 8.06957L13.115 10.5376L11.04 12.0206C10.8703 12.1415 10.7289 12.298 10.6259 12.4791C10.5228 12.6602 10.4604 12.8616 10.4431 13.0693C10.4258 13.277 10.4539 13.486 10.5256 13.6817C10.5973 13.8773 10.7108 14.0551 10.8581 14.2024C11.0055 14.3498 11.1832 14.4633 11.3789 14.5349C11.5746 14.6066 11.7836 14.6348 11.9912 14.6175C12.1989 14.6002 12.4003 14.5378 12.5815 14.4347C12.7626 14.3316 12.9191 14.1903 13.04 14.0206L14.522 11.9446L16.99 8.77057Z" fill="#545454"/>
</svg>
