<svg width="18" height="19" viewBox="0 0 18 19" fill="none" xmlns="http://www.w3.org/2000/svg">
    <defs>
        <clipPath id="clip0_199_504">
            <rect width="18" height="18" fill="white" transform="translate(0 0.461182)" />
        </clipPath>
    </defs>
    <g clip-path="url(#clip0_199_504)">
        <path
            d="M9 9.46118C9.89002 9.46118 10.76 9.19726 11.5001 8.7028C12.2401 8.20833 12.8169 7.50553 13.1575 6.68326C13.4981 5.86099 13.5872 4.95619 13.4135 4.08328C13.2399 3.21036 12.8113 2.40854 12.182 1.7792C11.5526 1.14987 10.7508 0.721283 9.87791 0.54765C9.00499 0.374016 8.10019 0.463131 7.27792 0.803726C6.45566 1.14432 5.75285 1.7211 5.25839 2.46112C4.76392 3.20114 4.5 4.07117 4.5 4.96118C4.50119 6.15429 4.97568 7.29819 5.81934 8.14185C6.66299 8.9855 7.80689 9.45999 9 9.46118ZM9 1.96118C9.59334 1.96118 10.1734 2.13713 10.6667 2.46677C11.1601 2.79642 11.5446 3.26496 11.7716 3.81313C11.9987 4.36131 12.0581 4.96451 11.9424 5.54645C11.8266 6.1284 11.5409 6.66295 11.1213 7.0825C10.7018 7.50206 10.1672 7.78778 9.58527 7.90354C9.00333 8.0193 8.40013 7.95989 7.85195 7.73282C7.30377 7.50576 6.83524 7.12124 6.50559 6.62789C6.17595 6.13455 6 5.55453 6 4.96118C6 4.16553 6.31607 3.40247 6.87868 2.83986C7.44129 2.27725 8.20435 1.96118 9 1.96118Z"
            fill="#040415" fill-opacity="0.6" />
        <path
            d="M9 10.9612C7.2104 10.9632 5.49466 11.675 4.22922 12.9404C2.96378 14.2058 2.25199 15.9216 2.25 17.7112C2.25 17.9101 2.32902 18.1009 2.46967 18.2415C2.61032 18.3822 2.80109 18.4612 3 18.4612C3.19891 18.4612 3.38968 18.3822 3.53033 18.2415C3.67098 18.1009 3.75 17.9101 3.75 17.7112C3.75 16.3188 4.30312 14.9834 5.28769 13.9989C6.27226 13.0143 7.60761 12.4612 9 12.4612C10.3924 12.4612 11.7277 13.0143 12.7123 13.9989C13.6969 14.9834 14.25 16.3188 14.25 17.7112C14.25 17.9101 14.329 18.1009 14.4697 18.2415C14.6103 18.3822 14.8011 18.4612 15 18.4612C15.1989 18.4612 15.3897 18.3822 15.5303 18.2415C15.671 18.1009 15.75 17.9101 15.75 17.7112C15.748 15.9216 15.0362 14.2058 13.7708 12.9404C12.5053 11.675 10.7896 10.9632 9 10.9612Z"
            fill="#040415" fill-opacity="0.6" />
    </g>
</svg>
