<svg width="24" height="24" viewBox="0 0 24 24" fill="none" xmlns="http://www.w3.org/2000/svg">
    <mask id="mask0_480_3956" style="mask-type:luminance" maskUnits="userSpaceOnUse" x="1" y="2" width="22" height="20">
        <path d="M5.5 7.49903L2.5 7.99903C3.315 4.24203 5.682 3.00253 8 2.99903C9.4985 2.99653 10.976 3.51203 12 3.99903C13.024 3.51203 14.5 2.99903 16 2.99903C18.3055 2.99903 20.685 4.24203 21.5 7.99903L18.5 7.49903C18.7795 8.54903 19.394 10.395 18.5 11.999C17.01 10.6625 13.565 8.64453 12 7.49903C10.435 8.64453 6.99 10.6625 5.5 11.999C4.606 10.3955 5.2205 8.54903 5.5 7.49903Z" fill="white" stroke="white" stroke-width="1.33333" stroke-linecap="round" stroke-linejoin="round"/>
        <path d="M12 7.5C11.6225 9.4445 11.0945 14.2665 12 18" stroke="white" stroke-width="1.33333" stroke-linecap="round" stroke-linejoin="round"/>
        <path d="M6 21H18C15.6065 18.7075 14.5 18.0025 12 18C9.5 17.9975 6.946 19.691 6 21Z" fill="white" stroke="white" stroke-width="1.33333" stroke-linecap="round" stroke-linejoin="round"/>
    </mask>
    <g mask="url(#mask0_480_3956)">
        <path d="M0 0H24V24H0V0Z" fill="#F7691F"/>
    </g>
</svg>
