<svg width="28" height="28" viewBox="0 0 28 28" fill="none" xmlns="http://www.w3.org/2000/svg">
<circle cx="14" cy="14" r="14" fill="#F4EEEA"/>
<path d="M18.8467 13.273C19.0843 13.6123 19.5519 13.6948 19.8912 13.4572C20.2305 13.2196 20.313 12.7519 20.0754 12.4126L18.8467 13.273ZM11.0775 10.6747L10.7488 10.0006V10.0006L11.0775 10.6747ZM8.0768 12.2032C7.82752 12.534 7.89361 13.0043 8.22442 13.2535C8.55523 13.5028 9.02548 13.4367 9.27476 13.1059L8.0768 12.2032ZM17.2084 15.0868C17.4459 15.4261 17.9136 15.5086 18.2529 15.271C18.5922 15.0334 18.6747 14.5658 18.4371 14.2265L17.2084 15.0868ZM9.67408 14.0735C9.4248 14.4043 9.49089 14.8746 9.82169 15.1238C10.1525 15.3731 10.6227 15.307 10.872 14.9762L9.67408 14.0735ZM15.024 16.6164C15.2615 16.9557 15.7292 17.0381 16.0685 16.8005C16.4078 16.563 16.4903 16.0953 16.2527 15.756L15.024 16.6164ZM11.8038 15.6783C11.5545 16.0091 11.6206 16.4794 11.9514 16.7287C12.2822 16.978 12.7524 16.9119 13.0017 16.5811L11.8038 15.6783ZM14 17.25C13.5858 17.25 13.25 17.5858 13.25 18C13.25 18.4142 13.5858 18.75 14 18.75V17.25ZM14.0067 18.75C14.4209 18.75 14.7567 18.4142 14.7567 18C14.7567 17.5858 14.4209 17.25 14.0067 17.25V18.75ZM20.0754 12.4126C19.4041 11.4539 18.5154 10.6676 17.4819 10.1181L16.7777 11.4426C17.6021 11.8809 18.3111 12.5082 18.8467 13.273L20.0754 12.4126ZM17.4819 10.1181C16.4485 9.56866 15.2997 9.27156 14.1295 9.25113L14.1033 10.7509C15.0368 10.7672 15.9533 11.0042 16.7777 11.4426L17.4819 10.1181ZM14.1295 9.25113C12.9592 9.2307 11.8007 9.48753 10.7488 10.0006L11.4063 11.3488C12.2455 10.9395 13.1697 10.7346 14.1033 10.7509L14.1295 9.25113ZM10.7488 10.0006C9.69679 10.5137 8.78119 11.2685 8.0768 12.2032L9.27476 13.1059C9.83668 12.3602 10.5671 11.7581 11.4063 11.3488L10.7488 10.0006ZM18.4371 14.2265C17.9468 13.5262 17.2977 12.952 16.543 12.5507L15.8388 13.8751C16.3845 14.1653 16.8538 14.5805 17.2084 15.0868L18.4371 14.2265ZM16.543 12.5507C15.7882 12.1494 14.9492 11.9324 14.0946 11.9175L14.0684 13.4173C14.6864 13.4281 15.293 13.5849 15.8388 13.8751L16.543 12.5507ZM14.0946 11.9175C13.2399 11.9026 12.3938 12.0901 11.6255 12.4649L12.2831 13.8131C12.8386 13.5421 13.4504 13.4065 14.0684 13.4173L14.0946 11.9175ZM11.6255 12.4649C10.8572 12.8396 10.1885 13.3908 9.67408 14.0735L10.872 14.9762C11.244 14.4826 11.7275 14.084 12.2831 13.8131L11.6255 12.4649ZM16.2527 15.756C16.0038 15.4005 15.6742 15.109 15.2911 14.9052L14.5869 16.2296C14.761 16.3223 14.9108 16.4548 15.024 16.6164L16.2527 15.756ZM15.2911 14.9052C14.9079 14.7015 14.4819 14.5913 14.048 14.5838L14.0218 16.0835C14.2191 16.087 14.4127 16.137 14.5869 16.2296L15.2911 14.9052ZM14.048 14.5838C13.6141 14.5762 13.1846 14.6714 12.7945 14.8616L13.4521 16.2098C13.6294 16.1234 13.8246 16.0801 14.0218 16.0835L14.048 14.5838ZM12.7945 14.8616C12.4044 15.0519 12.0649 15.3318 11.8038 15.6783L13.0017 16.5811C13.1204 16.4235 13.2748 16.2963 13.4521 16.2098L12.7945 14.8616ZM14 18.75H14.0067V17.25H14V18.75Z" fill="#F7691F"/>
</svg>
