<svg width="18" height="18" viewBox="0 0 18 18" fill="none" xmlns="http://www.w3.org/2000/svg">
<path fill-rule="evenodd" clip-rule="evenodd" d="M16.0002 7.3998C12.1338 3.5334 5.8662 3.5334 1.9998 7.3998C1.83006 7.56374 1.60272 7.65446 1.36674 7.65241C1.13077 7.65036 0.905035 7.55571 0.738167 7.38884C0.5713 7.22197 0.476648 6.99624 0.474598 6.76026C0.472547 6.52429 0.563262 6.29694 0.727204 6.1272C5.2956 1.5579 12.7044 1.5579 17.2728 6.1272C17.4367 6.29694 17.5275 6.52429 17.5254 6.76026C17.5234 6.99624 17.4287 7.22197 17.2618 7.38884C17.095 7.55571 16.8692 7.65036 16.6333 7.65241C16.3973 7.65446 16.1699 7.56374 16.0002 7.3998ZM13.455 9.945C12.87 9.35992 12.1755 8.89581 11.4111 8.57917C10.6467 8.26252 9.82739 8.09955 9 8.09955C8.17262 8.09955 7.35334 8.26252 6.58895 8.57917C5.82456 8.89581 5.13002 9.35992 4.545 9.945C4.37526 10.1089 4.14792 10.1997 3.91194 10.1976C3.67597 10.1956 3.45023 10.1009 3.28337 9.93404C3.1165 9.76717 3.02185 9.54144 3.0198 9.30546C3.01775 9.06949 3.10846 8.84214 3.2724 8.6724C4.02456 7.92024 4.9175 7.32359 5.90025 6.91652C6.88299 6.50945 7.93629 6.29993 9 6.29993C10.0637 6.29993 11.117 6.50945 12.0998 6.91652C13.0825 7.32359 13.9754 7.92024 14.7276 8.6724C14.8915 8.84214 14.9823 9.06949 14.9802 9.30546C14.9782 9.54144 14.8835 9.76717 14.7166 9.93404C14.5498 10.1009 14.324 10.1956 14.0881 10.1976C13.8521 10.1997 13.6247 10.1089 13.455 9.945ZM10.908 12.492C10.4017 11.9858 9.71505 11.7015 8.9991 11.7015C8.28316 11.7015 7.59653 11.9858 7.0902 12.492C6.92133 12.6609 6.69228 12.7558 6.45345 12.7558C6.21463 12.7558 5.98558 12.6609 5.8167 12.492C5.64783 12.3231 5.55295 12.0941 5.55295 11.8553C5.55295 11.6164 5.64783 11.3874 5.8167 11.2185C6.23458 10.8005 6.73071 10.4689 7.27675 10.2427C7.8228 10.0165 8.40806 9.90006 8.9991 9.90006C9.59015 9.90006 10.1754 10.0165 10.7215 10.2427C11.2675 10.4689 11.7636 10.8005 12.1815 11.2185C12.3504 11.3874 12.4453 11.6164 12.4453 11.8553C12.4453 12.0941 12.3504 12.3231 12.1815 12.492C12.0126 12.6609 11.7836 12.7558 11.5448 12.7558C11.3059 12.7558 11.0769 12.6609 10.908 12.492ZM8.1 14.4C8.1 14.1613 8.19483 13.9324 8.36361 13.7636C8.53239 13.5948 8.76131 13.5 9 13.5H9.009C9.2477 13.5 9.47662 13.5948 9.6454 13.7636C9.81418 13.9324 9.909 14.1613 9.909 14.4C9.909 14.6387 9.81418 14.8676 9.6454 15.0364C9.47662 15.2052 9.2477 15.3 9.009 15.3H9C8.76131 15.3 8.53239 15.2052 8.36361 15.0364C8.19483 14.8676 8.1 14.6387 8.1 14.4Z" fill="#222222"/>
</svg>
